<?xml version="1.0" encoding="utf-8"?>
<!-- Generator: Adobe Illustrator 24.3.0, SVG Export Plug-In . SVG Version: 6.00 Build 0)  -->
<svg version="1.1" id="Layer_1" xmlns="http://www.w3.org/2000/svg" xmlns:xlink="http://www.w3.org/1999/xlink" x="0px" y="0px"
	 viewBox="0 0 800 800" style="enable-background:new 0 0 800 800;" xml:space="preserve">
<style type="text/css">
	.st0{fill:none;stroke:#FFFFFF;stroke-width:50;stroke-miterlimit:16.6667;}
	.st1{fill:none;stroke:#FFFFFF;stroke-width:41;stroke-miterlimit:10;}
</style>
<path class="st0" d="M191.7,125h416.7c36.8,0,66.7,29.8,66.7,66.7v416.7c0,36.8-29.8,66.7-66.7,66.7H191.7
	c-36.8,0-66.7-29.8-66.7-66.7V191.7C125,154.8,154.8,125,191.7,125z"/>
<path class="st1" d="M451.5,279.8c-36.4-10.1-74.4-10.1-110.9,0c-2.1,0.6-4.1,1.2-6.2,1.8l-0.1,0c-1.1,0.3-2.2,0.1-3.1-0.6l0,0
	c-1.2-1-2.4-1.9-3.6-2.8c-38.3-28.8-58.4-27.5-63.3-26.6l0,0c-0.8,0.2-1.4,0.7-1.7,1.5c-0.1,0.2-0.1,0.4-0.2,0.6
	c-7.9,22.2-9.1,46.9-3.5,69.9c0.3,1.3,0.7,2.7,1,4c0,0.1,0,0.2,0.1,0.3c0.3,1.1,0.1,2.4-0.6,3.3l0,0c-0.6,0.7-1.1,1.4-1.6,2.2
	c-15.3,21-23.5,47.7-23.2,75.2c0,111.9,58.2,137.6,114.1,145.2l1.2,0.2c31.1,4.7,61,4.4,92-0.9l0.8-0.1
	c56.2-6.8,114.8-31.8,114.8-144.3c0.4-27.6-7.9-54.3-23.1-75.2c-0.5-0.7-1-1.3-1.5-2c0,0,0,0,0,0c-0.8-1-1-2.4-0.7-3.6l0,0
	c0.4-1.4,0.7-2.7,1.1-4.1c5.6-23.1,4.3-47.8-3.7-70.1c-0.1-0.1-0.1-0.3-0.1-0.4c-0.3-0.8-0.9-1.4-1.7-1.5l0,0
	c-5-1-24.9-2.2-63.2,26.6c-1.1,0.8-2.2,1.7-3.4,2.6l0,0c-1,0.8-2.4,1.1-3.7,0.7c0,0-0.1,0-0.1,0
	C455.4,280.9,453.4,280.3,451.5,279.8z"/>
</svg>
