<?xml version="1.0" encoding="utf-8"?>
<!-- Generator: Adobe Illustrator 24.3.0, SVG Export Plug-In . SVG Version: 6.00 Build 0)  -->
<svg version="1.1" id="Layer_1" xmlns="http://www.w3.org/2000/svg" xmlns:xlink="http://www.w3.org/1999/xlink" x="0px" y="0px"
	 viewBox="0 0 800 800" style="enable-background:new 0 0 800 800;" xml:space="preserve">
<style type="text/css">
	.st0{fill:none;stroke:#FFFFFF;stroke-width:50;stroke-miterlimit:16.6667;}
	.st1{fill:#FFFFFF;}
</style>
<path class="st0" d="M191.7,125h416.7c36.8,0,66.7,29.8,66.7,66.7v416.7c0,36.8-29.8,66.7-66.7,66.7H191.7
	c-36.8,0-66.7-29.8-66.7-66.7V191.7C125,154.8,154.8,125,191.7,125z"/>
<path class="st1" d="M531.3,356.9c-8.3-20.1-20.5-38.4-35.9-53.8c-15.4-15.4-33.7-27.6-53.8-35.9c-20.1-8.3-41.7-12.6-63.4-12.5
	c-32.8,0-64.8,9.7-92,27.9c-27.2,18.2-48.5,44.1-61,74.3c-12.5,30.3-15.8,63.6-9.4,95.7c6.4,32.1,22.2,61.6,45.3,84.8
	c23.2,23.2,52.7,38.9,84.8,45.3c32.1,6.4,65.4,3.1,95.7-9.4c30.3-12.5,56.1-33.8,74.3-61c18.2-27.2,27.9-59.3,27.9-92
	C543.9,398.6,539.6,377,531.3,356.9z M454.5,496.6c-20.2,20.2-47.7,31.6-76.2,31.6c-21.3,0-42.2-6.3-59.9-18.2
	c-17.7-11.9-31.6-28.7-39.7-48.4c-8.2-19.7-10.3-41.4-6.1-62.3c4.2-20.9,14.4-40.1,29.5-55.2c15.1-15.1,34.3-25.4,55.2-29.5
	c20.9-4.2,42.6-2,62.3,6.1c19.7,8.2,36.5,22,48.4,39.7c11.9,17.7,18.2,38.6,18.2,59.9C486.1,449,474.7,476.4,454.5,496.6z"/>
<path class="st1" d="M589.5,247.9c0,8-2.4,15.8-6.8,22.4c-4.4,6.6-10.7,11.8-18.1,14.9c-7.4,3.1-15.5,3.9-23.3,2.3
	c-7.8-1.6-15-5.4-20.7-11.1c-5.6-5.6-9.5-12.8-11.1-20.7c-1.6-7.8-0.8-16,2.3-23.3c3.1-7.4,8.2-13.7,14.9-18.1
	c6.6-4.4,14.5-6.8,22.4-6.8c10.7,0,21,4.3,28.6,11.8C585.2,226.9,589.5,237.2,589.5,247.9z"/>
</svg>
