<?xml version="1.0" encoding="utf-8"?>
<!-- Generator: Adobe Illustrator 24.3.0, SVG Export Plug-In . SVG Version: 6.00 Build 0)  -->
<svg version="1.1" id="Layer_1" xmlns="http://www.w3.org/2000/svg" xmlns:xlink="http://www.w3.org/1999/xlink" x="0px" y="0px"
	 viewBox="0 0 800 800" style="enable-background:new 0 0 800 800;" xml:space="preserve">
<style type="text/css">
	.st0{fill:none;stroke:#FFFFFF;stroke-width:50;stroke-miterlimit:16.6667;}
	.st1{fill:#FFFFFF;}
</style>
<path class="st0" d="M191.7,125h416.7c36.8,0,66.7,29.8,66.7,66.7v416.7c0,36.8-29.8,66.7-66.7,66.7H191.7
	c-36.8,0-66.7-29.8-66.7-66.7V191.7C125,154.8,154.8,125,191.7,125z"/>
<path class="st1" d="M299.3,215.3c-0.2,0-0.4,0-0.7,0c-2.6,0-4.8,2.2-4.8,4.8c0,0.3,0,0.5,0,0.7v0v359.7c0,0.2,0,0.4,0,0.7
	c0,2.6,2.2,4.8,4.8,4.8c0.3,0,0.5,0,0.7,0h0h37.6c0.2,0,0.4,0,0.7,0c2.6,0,4.8-2.2,4.8-4.8c0-0.3,0-0.5,0-0.7v0v-78.9l22.3-21.2
	l80,101.7c1.8,2.3,4.5,3.8,7.6,3.8h48.4c2.5,0,4-0.7,4.3-2.2c0.3-0.6,0.4-1.2,0.4-1.9c0-1.4-0.6-2.6-1.5-3.5l0,0L398.3,447
	l101.2-97.9c0.6-0.8,1-1.7,1-2.9c0-0.8-0.2-1.4-0.5-2.1v0c-0.6-1.6-2.2-2.7-4-2.7c-0.1,0-0.3,0-0.4,0l0,0h-50
	c-3.1,0.2-5.8,1.6-7.6,3.8l0,0l-95.7,96.8V220.7c0-0.2,0-0.4,0-0.7c0-2.6-2.2-4.8-4.8-4.8c-0.3,0-0.5,0-0.7,0h0L299.3,215.3z"/>
</svg>
