<?xml version="1.0" encoding="utf-8"?>
<!-- Generator: Adobe Illustrator 24.3.0, SVG Export Plug-In . SVG Version: 6.00 Build 0)  -->
<svg version="1.1" id="Layer_1" xmlns="http://www.w3.org/2000/svg" xmlns:xlink="http://www.w3.org/1999/xlink" x="0px" y="0px"
	 viewBox="0 0 800 800" style="enable-background:new 0 0 800 800;" xml:space="preserve">
<style type="text/css">
	.st0{fill:none;stroke:#FFFFFF;stroke-width:50;stroke-miterlimit:16.6667;}
	.st1{fill:none;stroke:#FFFFFF;stroke-miterlimit:10;}
	.st2{fill:#FFFFFF;}
	.st3{fill:none;stroke:#FFFFFF;stroke-width:20;stroke-linecap:square;stroke-miterlimit:10;}
</style>
<path class="st0" d="M191.7,125h416.7c36.8,0,66.7,29.8,66.7,66.7v416.7c0,36.8-29.8,66.7-66.7,66.7H191.7
	c-36.8,0-66.7-29.8-66.7-66.7V191.7C125,154.8,154.8,125,191.7,125z"/>
<path class="st1" d="M479.5,221c-51.9,0-94.1,42.2-94.1,94.1c0,3.1,0.8,6.2,1.1,9.2c-64.2-6.1-120.9-37-159.4-84.3
	c-1.8-2.3-4.6-3.5-7.5-3.3s-5.5,1.9-6.9,4.4c-8.1,13.9-12.7,30-12.7,47.2c0,20.8,7.5,39.9,19,55.6c-2.2-1-4.7-1.5-6.8-2.7
	c-2.7-1.4-5.9-1.4-8.5,0.2s-4.2,4.4-4.2,7.4v1.1c0,32,16.5,59.7,40.9,76.7c-0.3,0-0.5,0.1-0.8,0c-3-0.5-6,0.5-8,2.8
	s-2.6,5.4-1.8,8.3c9.7,30.1,34.4,53.1,65.1,61.5c-24.4,14.5-52.7,23-83.2,23c-6.6,0-12.9-0.3-19.3-1.1c-4.1-0.5-8,1.8-9.3,5.7
	c-1.4,3.9,0.1,8.2,3.6,10.3c39.1,25.1,85.6,39.9,135.6,39.9c81,0,144.5-33.8,187.1-82.2s64.8-111.1,64.8-169.7
	c0-2.5-0.2-4.9-0.3-7.3c15.9-12.2,30.1-26.4,41.2-43.1c2.2-3.2,2-7.5-0.6-10.5c-2.5-3-6.7-3.9-10.3-2.2c-4.5,2-9.7,2.2-14.4,3.8
	c6.2-8.2,11.5-17.1,14.6-27.1c1.1-3.4-0.1-7.2-2.9-9.4c-2.8-2.2-6.7-2.5-9.8-0.6c-14.8,8.8-31.2,14.9-48.5,18.7
	C526.4,231.6,504.2,221,479.5,221z M479.5,238.4c22.1,0,42.1,9.5,56.1,24.4c2.1,2.2,5.2,3.1,8.1,2.4c11.3-2.2,22.1-5.5,32.5-9.8
	c-6,8.1-13.5,15.1-22.2,20.3c-4,1.9-5.8,6.5-4.4,10.7c1.4,4.1,5.8,6.5,10.1,5.6c8.7-1.1,16.4-4.6,24.7-6.8
	c-7.4,8-15.6,15.3-24.4,21.7c-2.4,1.8-3.7,4.6-3.5,7.6c0.1,3.5,0.3,7,0.3,10.6c0,54.2-20.8,113.1-60.5,158.1s-97.9,76.5-174.1,76.5
	c-34.6,0-67.3-7.7-96.8-21.1c36.6-2.8,70.4-15.8,97.6-37.1c2.8-2.3,4-6.1,2.8-9.5c-1.2-3.5-4.3-5.8-8-5.9
	c-28.6-0.5-52.6-17.1-65.3-40.7c0.5,0,0.9,0,1.4,0c8.6,0,17-1.1,24.9-3.3c3.8-1.1,6.4-4.6,6.3-8.6s-2.9-7.4-6.8-8.2
	c-30.9-6.2-54-31.4-59.4-62.6c8.7,3,17.7,5.4,27.4,5.7c4,0.2,7.6-2.2,8.8-6s-0.3-7.9-3.6-10c-20.6-13.8-34.2-37.3-34.2-64
	c0-9.9,2.6-19,6-27.7c43.4,47.6,104.1,79.2,172.7,82.7c2.7,0.1,5.4-1,7.1-3.1c1.8-2.1,2.4-4.9,1.8-7.5c-1.3-5.6-2.2-11.6-2.2-17.6
	C402.7,272.6,437,238.4,479.5,238.4z"/>
<path class="st2" d="M614.5,264.2c-2.5-3-6.7-3.9-10.3-2.2c-4.5,2-9.7,2.2-14.4,3.8c6.2-8.2,11.5-17.1,14.6-27.1
	c1.1-3.4-0.1-7.2-2.9-9.4s-6.7-2.5-9.8-0.6c-14.8,8.8-31.2,14.9-48.5,18.7c-16.8-15.8-39-26.4-63.7-26.4
	c-51.9,0-94.1,42.2-94.1,94.1c0,3.1,0.8,6.2,1.1,9.2c-64.2-6.1-120.9-37-159.4-84.3c-1.8-2.3-4.6-3.5-7.5-3.3
	c-2.9,0.2-5.5,1.9-6.9,4.4c-8.1,13.9-12.7,30-12.7,47.2c0,20.8,7.5,39.9,19,55.6c-2.2-1-4.7-1.5-6.8-2.7c-2.7-1.4-5.9-1.4-8.5,0.2
	c-2.6,1.6-4.2,4.4-4.2,7.4v1.1c0,32,16.5,59.7,40.9,76.7c-0.3,0-0.5,0.1-0.8,0c-3-0.5-6,0.5-8,2.8c-2,2.3-2.6,5.4-1.8,8.3
	c9.7,30.1,34.4,53.1,65.1,61.5c-24.4,14.5-52.7,23-83.2,23c-6.6,0-12.9-0.3-19.3-1.1c-4.1-0.5-8,1.8-9.3,5.7
	c-1.4,3.9,0.1,8.2,3.6,10.3c39.1,25.1,85.6,39.9,135.6,39.9c81,0,144.5-33.8,187.1-82.2c42.6-48.4,64.8-111.1,64.8-169.7
	c0-2.5-0.2-4.9-0.3-7.3c15.9-12.2,30.1-26.4,41.2-43.1C617.3,271.5,617.1,267.2,614.5,264.2z M560,306.9c-2.4,1.8-3.7,4.6-3.5,7.6
	c0.1,3.5,0.3,7,0.3,10.6c0,54.2-20.8,113.1-60.5,158.1s-97.9,76.5-174.1,76.5c-34.6,0-67.3-7.7-96.8-21.1
	c36.6-2.8,70.4-15.8,97.6-37.1c2.8-2.3,4-6.1,2.8-9.5c-1.2-3.5-4.3-5.8-8-5.9c-28.6-0.5-52.6-17.1-65.3-40.7h1.4
	c8.6,0,17-1.1,24.9-3.3c3.8-1.1,6.4-4.6,6.3-8.6c-0.1-4-2.9-7.4-6.8-8.2c-30.9-6.2-54-31.4-59.4-62.6c8.7,3,17.7,5.4,27.4,5.7
	c4,0.2,7.6-2.2,8.8-6c1.2-3.8-0.3-7.9-3.6-10c-20.6-13.8-34.2-37.3-34.2-64c0-9.9,2.6-19,6-27.7c43.4,47.6,104.1,79.2,172.7,82.7
	c2.7,0.1,5.4-1,7.1-3.1c1.8-2.1,2.4-4.9,1.8-7.5c-1.3-5.6-2.2-11.6-2.2-17.6c0-42.6,34.3-76.8,76.8-76.8c22.1,0,42.1,9.5,56.1,24.4
	c2.1,2.2,5.2,3.1,8.1,2.4c11.3-2.2,22.1-5.5,32.5-9.8c-6,8.1-13.5,15.1-22.2,20.3c-4,1.9-5.8,6.5-4.4,10.7c1.4,4.1,5.8,6.5,10.1,5.6
	c8.7-1.1,16.4-4.6,24.7-6.8C577,293.2,568.8,300.5,560,306.9z"/>
<path class="st3" d="M584.4,285.2c-7.4,8-15.6,15.3-24.4,21.7c-2.4,1.8-3.7,4.6-3.5,7.6c0.1,3.5,0.3,7,0.3,10.6
	c0,54.2-20.8,113.1-60.5,158.1s-97.9,76.5-174.1,76.5c-34.6,0-67.3-7.7-96.8-21.1c36.6-2.8,70.4-15.8,97.6-37.1
	c2.8-2.3,4-6.1,2.8-9.5c-1.2-3.5-4.3-5.8-8-5.9c-28.6-0.5-52.6-17.1-65.3-40.7h1.4c8.6,0,17-1.1,24.9-3.3c3.8-1.1,6.4-4.6,6.3-8.6
	c-0.1-4-2.9-7.4-6.8-8.2c-30.9-6.2-54-31.4-59.4-62.6c8.7,3,17.7,5.4,27.4,5.7c4,0.2,7.6-2.2,8.8-6c1.2-3.8-0.3-7.9-3.6-10
	c-20.6-13.8-34.2-37.3-34.2-64c0-9.9,2.6-19,6-27.7c43.4,47.6,104.1,79.2,172.7,82.7c2.7,0.1,5.4-1,7.1-3.1c1.8-2.1,2.4-4.9,1.8-7.5
	c-1.3-5.6-2.2-11.6-2.2-17.6c0-42.6,34.3-76.8,76.8-76.8c22.1,0,42.1,9.5,56.1,24.4c2.1,2.2,5.2,3.1,8.1,2.4
	c11.3-2.2,22.1-5.5,32.5-9.8c-6,8.1-13.5,15.1-22.2,20.3c-4,1.9-5.8,6.5-4.4,10.7c1.4,4.1,5.8,6.5,10.1,5.6
	C568.4,290.9,576.1,287.4,584.4,285.2z"/>
</svg>
